<svg width="25" height="25" viewBox="0 0 25 25" fill="none" xmlns="http://www.w3.org/2000/svg">
<path d="M16.1457 7.81246C16.1457 9.826 14.5134 11.4583 12.4998 11.4583C10.4863 11.4583 8.854 9.826 8.854 7.81246C8.854 5.79892 10.4863 4.16663 12.4998 4.16663C14.5134 4.16663 16.1457 5.79892 16.1457 7.81246Z" fill="#300C60"/>
<path d="M18.75 17.1875C18.75 19.201 15.9518 20.8333 12.5 20.8333C9.04822 20.8333 6.25 19.201 6.25 17.1875C6.25 15.1739 9.04822 13.5416 12.5 13.5416C15.9518 13.5416 18.75 15.1739 18.75 17.1875Z" fill="#300C60"/>
<path d="M7.41872 5.20837C7.60357 5.20837 7.78404 5.22651 7.9583 5.26104C7.53376 6.0151 7.29158 6.88554 7.29158 7.81254C7.29158 8.71697 7.52211 9.56756 7.92761 10.3087C7.76288 10.3394 7.59275 10.3555 7.41872 10.3555C5.94536 10.3555 4.75098 9.20329 4.75098 7.78195C4.75098 6.3606 5.94536 5.20837 7.41872 5.20837Z" fill="#300C60"/>
<path d="M5.67448 19.7771C5.08289 19.0699 4.68766 18.2021 4.68766 17.1875C4.68766 16.2039 5.05909 15.3583 5.62077 14.6632C3.63673 14.8172 2.0835 15.9023 2.0835 17.2181C2.0835 18.5462 3.66402 19.6394 5.67448 19.7771Z" fill="#300C60"/>
<path d="M17.7082 7.81254C17.7082 8.71697 17.4776 9.56756 17.0721 10.3087C17.2369 10.3394 17.407 10.3555 17.5811 10.3555C19.0544 10.3555 20.2488 9.20329 20.2488 7.78195C20.2488 6.3606 19.0544 5.20837 17.5811 5.20837C17.3962 5.20837 17.2158 5.22651 17.0415 5.26104C17.466 6.0151 17.7082 6.88554 17.7082 7.81254Z" fill="#300C60"/>
<path d="M19.3257 19.7771C21.3361 19.6394 22.9166 18.5462 22.9166 17.2181C22.9166 15.9023 21.3634 14.8172 19.3793 14.6632C19.941 15.3583 20.3125 16.2039 20.3125 17.1875C20.3125 18.2021 19.9172 19.0699 19.3257 19.7771Z" fill="#300C60"/>
</svg>
