<svg width="25" height="25" viewBox="0 0 25 25" fill="none" xmlns="http://www.w3.org/2000/svg">
<path d="M17.7083 12.5C20.5848 12.5 22.9167 10.1682 22.9167 7.29171C22.9167 4.41523 20.5848 2.08337 17.7083 2.08337C14.8319 2.08337 12.5 4.41523 12.5 7.29171C12.5 8.12487 12.6956 8.91235 13.0434 9.61071C13.1359 9.79629 13.1667 10.0084 13.1131 10.2087L12.8029 11.3681C12.6682 11.8714 13.1286 12.3318 13.632 12.1971L14.7914 11.8869C14.9917 11.8334 15.2037 11.8641 15.3894 11.9566C16.0877 12.3044 16.8752 12.5 17.7083 12.5Z" fill="#300C60"/>
<path d="M8.37265 7.62101L9.04871 8.8324C9.65881 9.9256 9.41389 11.3597 8.45299 12.3206C8.45299 12.3206 7.28754 13.4862 9.4007 15.5995C11.5132 17.712 12.6795 16.5472 12.6795 16.5472C13.6405 15.5862 15.0745 15.3414 16.1678 15.9515L17.3791 16.6275C19.03 17.5487 19.2249 19.8637 17.7739 21.3148C16.902 22.1867 15.8339 22.8651 14.6532 22.9098C12.6656 22.9852 9.29004 22.4822 5.90402 19.0961C2.51801 15.7101 2.01497 12.3346 2.09032 10.347C2.13508 9.16625 2.8135 8.09816 3.68538 7.22628C5.13637 5.77529 7.45138 5.97025 8.37265 7.62101Z" fill="#300C60"/>
</svg>
