<svg width="25" height="25" viewBox="0 0 25 25" fill="none" xmlns="http://www.w3.org/2000/svg">
<path d="M19.7917 2.08337C20.9423 2.08337 21.875 3.01611 21.875 4.16671V16.6667C21.875 17.8173 20.9423 18.75 19.7917 18.75H17.7083V20.8334C17.7083 21.984 16.7756 22.9167 15.625 22.9167H5.20833C4.05774 22.9167 3.125 21.984 3.125 20.8334V8.33337C3.125 7.18278 4.05774 6.25004 5.20833 6.25004H7.29167V4.16671C7.29167 3.01611 8.22441 2.08337 9.375 2.08337H19.7917ZM15.625 8.33337H5.20833V20.8334H15.625V8.33337ZM10.4167 15.625C10.992 15.625 11.4583 16.0914 11.4583 16.6667C11.4583 17.242 10.992 17.7084 10.4167 17.7084H8.33333C7.75804 17.7084 7.29167 17.242 7.29167 16.6667C7.29167 16.0914 7.75804 15.625 8.33333 15.625H10.4167ZM19.7917 4.16671H9.375V6.25004H15.625C16.7756 6.25004 17.7083 7.18278 17.7083 8.33337V16.6667H19.7917V4.16671ZM12.5 11.4584C13.0753 11.4584 13.5417 11.9247 13.5417 12.5C13.5417 13.0343 13.1396 13.4745 12.6215 13.5347L12.5 13.5417H8.33333C7.75804 13.5417 7.29167 13.0754 7.29167 12.5C7.29167 11.9658 7.6938 11.5256 8.21185 11.4654L8.33333 11.4584H12.5Z" fill="#069BE7"/>
</svg>
