<svg width="25" height="25" viewBox="0 0 25 25" fill="none" xmlns="http://www.w3.org/2000/svg">
<path d="M10.0215 19.7711C11.0384 19.8841 12.0515 19.5287 12.7751 18.8052L15.5412 16.0391C18.0364 16.4697 20.7022 15.7229 22.634 13.7912C22.7311 13.6941 22.8252 13.5951 22.9163 13.4945C22.9093 17.7492 22.8102 19.9723 21.3913 21.3912C19.8659 22.9167 17.4106 22.9167 12.5002 22.9167C7.58969 22.9167 5.13446 22.9167 3.60899 21.3912C2.0835 19.8657 2.0835 17.4104 2.0835 12.5C2.0835 7.58954 2.0835 5.13431 3.60899 3.60882C5.02782 2.18999 7.25094 2.0908 11.5058 2.08386C11.4051 2.17499 11.3061 2.2691 11.209 2.3662C9.27725 4.29794 8.53052 6.96377 8.96114 9.45903L6.195 12.2251C5.47152 12.9487 5.11613 13.9618 5.22912 14.9787L5.43057 16.7917C5.50429 17.4551 5.80161 18.0738 6.27363 18.5459L6.45437 18.7266C6.9264 19.1986 7.54505 19.4959 8.2085 19.5696L10.0215 19.7711Z" fill="#300C60"/>
<path fill-rule="evenodd" clip-rule="evenodd" d="M22.8775 8.76278C22.7292 10.0618 22.1569 11.3216 21.1606 12.318C19.6059 13.8727 17.4098 14.395 15.4242 13.8851C15.104 13.8029 14.7578 13.8757 14.5241 14.1094L12.9307 15.7029L12.9276 15.6998L11.4094 14.1982C11.1026 13.8947 10.608 13.8976 10.3046 14.2043C10.0012 14.5111 10.0039 15.0057 10.3106 15.3091L11.8258 16.8077L11.3015 17.3319C11.0256 17.608 10.6391 17.7435 10.2512 17.7004L8.43822 17.4989C8.24493 17.4775 8.0647 17.3909 7.92718 17.2534L7.74644 17.0726C7.60892 16.9351 7.5223 16.7548 7.50082 16.5615L7.29937 14.7486C7.25627 14.3607 7.39184 13.9742 7.66781 13.6983L10.8901 10.4759C11.1239 10.2421 11.1969 9.89581 11.1147 9.57556C10.6048 7.58992 11.1271 5.39391 12.6818 3.83928C13.6782 2.84289 14.9381 2.27053 16.2371 2.12219C17.1816 2.1569 17.9877 2.22258 18.6833 2.34683C19.5897 2.62465 20.4434 3.12214 21.1606 3.83928C21.8776 4.55639 22.3751 5.40997 22.653 6.31643C22.7772 7.01195 22.8428 7.8182 22.8775 8.76278ZM15.6125 6.93213C16.2905 6.25414 17.3897 6.25414 18.0677 6.93213C18.7458 7.61012 18.7458 8.70937 18.0677 9.38736C17.3897 10.0654 16.2905 10.0654 15.6125 9.38736C14.9345 8.70937 14.9345 7.61012 15.6125 6.93213Z" fill="#300C60"/>
</svg>
