<svg width="25" height="25" viewBox="0 0 25 25" fill="none" xmlns="http://www.w3.org/2000/svg">
<path fill-rule="evenodd" clip-rule="evenodd" d="M21.354 9.96622V15.0337C21.354 17.4227 21.354 18.6171 20.6023 19.3593C19.9194 20.0334 18.8584 20.0951 16.8556 20.1008C16.9614 19.3983 16.9836 18.5592 16.9891 17.5718C16.9915 17.152 16.6487 16.8098 16.2235 16.8074C15.7983 16.8051 15.4517 17.1435 15.4493 17.5633C15.4431 18.6716 15.4139 19.4572 15.303 20.0533C15.1961 20.6278 15.0245 20.9603 14.7746 21.2071C14.4905 21.4876 14.0916 21.6705 13.3383 21.7704C12.5629 21.8734 11.5351 21.875 10.0616 21.875H9.03505C7.56161 21.875 6.5339 21.8734 5.75848 21.7704C5.00515 21.6705 4.6063 21.4876 4.32223 21.2071C4.03807 20.9266 3.85286 20.5327 3.75161 19.7891C3.64734 19.0235 3.64567 18.0089 3.64567 16.5541V8.44595C3.64567 6.99114 3.64734 5.97649 3.75161 5.21094C3.85286 4.46724 4.03807 4.07342 4.32223 3.79292C4.6063 3.51242 5.00515 3.32953 5.75848 3.22954C6.5339 3.12661 7.56161 3.125 9.03505 3.125H10.0616C11.5351 3.125 12.5629 3.12661 13.3383 3.22954C14.0916 3.32953 14.4905 3.51242 14.7746 3.79292C15.0245 4.03966 15.1961 4.37217 15.303 4.94664C15.4139 5.54283 15.4431 6.32839 15.4493 7.43667C15.4517 7.85647 15.7983 8.1949 16.2235 8.19255C16.6487 8.19022 16.9915 7.84801 16.9891 7.4282C16.9836 6.44085 16.9614 5.60165 16.8556 4.89922C18.8584 4.90486 19.9194 4.96655 20.6023 5.64078C21.354 6.38291 21.354 7.57734 21.354 9.96622ZM18.8187 13.0375C19.1194 12.7406 19.1194 12.2594 18.8187 11.9625L16.7656 9.93548C16.465 9.63863 15.9775 9.63863 15.6768 9.93548C15.3761 10.2323 15.3761 10.7136 15.6768 11.0105L16.4156 11.7399H9.03536C8.61015 11.7399 8.26536 12.0802 8.26536 12.5C8.26536 12.9198 8.61015 13.2601 9.03536 13.2601H16.4156L15.6768 13.9895C15.3761 14.2864 15.3761 14.7677 15.6768 15.0645C15.9775 15.3614 16.465 15.3614 16.7656 15.0645L18.8187 13.0375Z" fill="#300C60"/>
</svg>
