<svg width="25" height="25" viewBox="0 0 25 25" fill="none" xmlns="http://www.w3.org/2000/svg">
<path d="M4.16654 14.323C3.84436 14.323 3.55522 14.5208 3.43843 14.821C3.32163 15.1213 3.40113 15.4625 3.63863 15.6802L9.88863 21.4093C10.117 21.6187 10.4475 21.6733 10.7311 21.5485C11.0147 21.4238 11.1978 21.1432 11.1978 20.8334V4.16675C11.1978 3.73527 10.848 3.3855 10.4165 3.3855C9.98507 3.3855 9.63529 3.73527 9.63529 4.16675V14.323H4.16654Z" fill="#300C60"/>
<path d="M20.8335 10.677H15.3647V20.8333C15.3647 21.2648 15.015 21.6145 14.5835 21.6145C14.152 21.6145 13.8022 21.2648 13.8022 20.8333V4.16665C13.8022 3.85683 13.9854 3.57628 14.2689 3.45152C14.5526 3.32677 14.8831 3.38139 15.1114 3.59074L21.3614 9.31991C21.5989 9.53761 21.6784 9.87877 21.5616 10.179C21.4448 10.4793 21.1557 10.677 20.8335 10.677Z" fill="#300C60"/>
</svg>
